HIERARCHY
ROOT joint_Root
{
	OFFSET 0.0 0.0 0.0
	CHANNELS 6 Xposition Yposition Zposition Zrotation Xrotation Yrotation 
	JOINT Hips
	{
		OFFSET 4.5925 91.4895 -427.239
		CHANNELS 6 Xposition Yposition Zposition Zrotation Xrotation Yrotation 
		JOINT Spine
		{
			OFFSET 15.7357 0.0 0.0
			CHANNELS 6 Xposition Yposition Zposition Zrotation Xrotation Yrotation 
			JOINT Chest
			{
				OFFSET 8.98455 -0.406207 0.0
				CHANNELS 6 Xposition Yposition Zposition Zrotation Xrotation Yrotation 
				JOINT Neck
				{
					OFFSET 16.3773 0.0 0.0
					CHANNELS 6 Xposition Yposition Zposition Zrotation Xrotation Yrotation 
					JOINT Head
					{
						OFFSET 6.45672 0.0 0.0
						CHANNELS 6 Xposition Yposition Zposition Zrotation Xrotation Yrotation 
						End Site
						{
							OFFSET 0.0 0.0 0.0
						}
					}
				}
				JOINT Shoulder_L
				{
					OFFSET 12.9942 -0.242716 4.98039
					CHANNELS 6 Xposition Yposition Zposition Zrotation Xrotation Yrotation 
					JOINT UpperArm_L
					{
						OFFSET 5.34809 0.0 0.0
						CHANNELS 6 Xposition Yposition Zposition Zrotation Xrotation Yrotation 
						JOINT LowerArm_L
						{
							OFFSET 24.3286 1.87007e-05 0.0
							CHANNELS 6 Xposition Yposition Zposition Zrotation Xrotation Yrotation 
							JOINT Hand_L
							{
								OFFSET 22.2916 0.0 0.0
								CHANNELS 6 Xposition Yposition Zposition Zrotation Xrotation Yrotation 
								End Site
								{
									OFFSET 0.0 0.0 0.0
								}
							}
						}
					}
				}
				JOINT Shoulder_R
				{
					OFFSET 12.9945 -0.242716 -4.98039
					CHANNELS 6 Xposition Yposition Zposition Zrotation Xrotation Yrotation 
					JOINT UpperArm_R
					{
						OFFSET -5.34813 0.0 0.0
						CHANNELS 6 Xposition Yposition Zposition Zrotation Xrotation Yrotation 
						JOINT LowerArm_R
						{
							OFFSET -24.3289 0.000322201 0.0
							CHANNELS 6 Xposition Yposition Zposition Zrotation Xrotation Yrotation 
							JOINT Hand_R
							{
								OFFSET -22.2915 -0.000108084 0.0
								CHANNELS 6 Xposition Yposition Zposition Zrotation Xrotation Yrotation 
								End Site
								{
									OFFSET 0.0 0.0 0.0
								}
							}
						}
					}
				}
			}
		}
		JOINT UpperLeg_L
		{
			OFFSET -2.19248 -6.46944 0.0
			CHANNELS 6 Xposition Yposition Zposition Zrotation Xrotation Yrotation 
			JOINT LowerLeg_L
			{
				OFFSET 39.0811 0.0 -1.23785e-05
				CHANNELS 6 Xposition Yposition Zposition Zrotation Xrotation Yrotation 
				JOINT Foot_L
				{
					OFFSET 40.9854 0.0 -1.26872e-05
					CHANNELS 6 Xposition Yposition Zposition Zrotation Xrotation Yrotation 
					JOINT Toes_L
					{
						OFFSET 11.7543 0.0 0.0
						CHANNELS 6 Xposition Yposition Zposition Zrotation Xrotation Yrotation 
						End Site
						{
							OFFSET 0.0 0.0 0.0
						}
					}
				}
			}
		}
		JOINT UpperLeg_R
		{
			OFFSET -2.19251 6.46944 0.0
			CHANNELS 6 Xposition Yposition Zposition Zrotation Xrotation Yrotation 
			JOINT LowerLeg_R
			{
				OFFSET -39.0811 -0.00228153 -0.0401928
				CHANNELS 6 Xposition Yposition Zposition Zrotation Xrotation Yrotation 
				JOINT Foot_R
				{
					OFFSET -40.9854 0.0 0.0
					CHANNELS 6 Xposition Yposition Zposition Zrotation Xrotation Yrotation 
					JOINT Toes_R
					{
						OFFSET -11.7543 0.0 0.0
						CHANNELS 6 Xposition Yposition Zposition Zrotation Xrotation Yrotation 
						End Site
						{
							OFFSET 0.0 0.0 0.0
						}
					}
				}
			}
		}
	}
}
MOTION
Frames:	7
Frame Time:	0.0333333
0.000000 0.000000 0.000000 0.000000 0.000000 -0.000000 -1.875750 92.338500 1.835010 89.167300 0.234763 1.984400 15.735700 0.000005 -0.000001 62.100200 88.330400 -62.058600 8.984550 -0.406207 -0.000000 -4.815350 -1.565570 0.017438 16.377300 -0.000001 -0.000001 2.447990 -2.620010 2.806470 6.456720 -0.000001 -0.000000 -2.677460 -0.675473 2.185200 12.994200 -0.242716 4.980390 -82.248600 -13.624600 -59.978300 5.348090 -0.000007 -0.000001 -69.534800 -68.184300 -114.599000 24.328600 0.000019 0.000005 6.015240 6.061170 -44.941100 22.291600 -0.000001 0.000005 16.924000 5.362530 -1.757140 12.994500 -0.242716 -4.980390 96.148200 -13.674000 -65.502400 -5.348130 -0.000001 -0.000004 -55.483800 -70.521700 -101.109000 -24.328900 0.000322 -0.000009 -7.117990 -7.861290 -42.391400 -22.291500 -0.000108 -0.000004 19.956300 5.581830 -10.310100 -2.192480 -6.469440 -0.000000 -174.515000 -13.336300 -2.257410 39.081100 -0.000007 -0.000012 -0.094927 0.257608 20.228600 40.985400 -0.000006 -0.000013 -0.558554 10.000200 -65.740700 11.754300 -0.000000 0.000003 -0.000117 -0.001179 -16.622600 -2.192510 6.469440 -0.000001 177.087000 25.575100 178.848000 -39.081100 -0.002282 -0.040193 0.007190 -0.010299 20.594000 -40.985400 0.000008 0.000006 6.586650 15.374100 -67.590600 -11.754300 -0.000006 -0.000006 -0.001758 -0.025645 -17.615900
0.000000 0.000000 0.000000 0.000000 0.000000 -0.000000 -1.877180 92.381500 1.726560 89.165100 0.282857 1.881670 15.735700 0.000005 -0.000001 61.305500 88.249500 -61.239000 8.984550 -0.406207 -0.000000 -4.695050 -1.686680 0.063899 16.377300 -0.000001 -0.000001 2.381040 -2.733500 2.838440 6.456720 -0.000001 -0.000000 -2.861440 -0.764744 2.219100 12.994200 -0.242716 4.980390 -82.588500 -13.055800 -60.065300 5.348090 -0.000007 -0.000001 -66.473100 -67.986800 -110.882000 24.328600 0.000019 0.000005 5.728460 5.346330 -47.115300 22.291600 -0.000001 0.000005 16.526000 5.366860 -1.889200 12.994500 -0.242716 -4.980390 95.817000 -13.074100 -65.755500 -5.348130 -0.000001 -0.000004 -51.150500 -70.168500 -96.417600 -24.328900 0.000322 -0.000009 -7.378920 -7.750430 -43.834500 -22.291500 -0.000108 -0.000004 19.687500 5.569390 -9.656210 -2.192480 -6.469440 -0.000000 -174.556000 -13.373000 -2.335550 39.081100 -0.000007 -0.000012 -0.091652 0.251999 19.986300 40.985400 -0.000006 -0.000013 -0.566912 10.039700 -65.527800 11.754300 -0.000000 0.000003 -0.000123 -0.001228 -16.624500 -2.192510 6.469440 -0.000001 177.149000 25.766400 178.862000 -39.081100 -0.002282 -0.040193 0.006712 -0.009210 20.214500 -40.985400 0.000008 0.000006 6.534550 15.519400 -67.424400 -11.754300 -0.000006 -0.000006 -0.001599 -0.023575 -17.531700
0.000000 0.000000 0.000000 0.000000 0.000000 -0.000000 -1.867820 92.411400 1.622030 89.148800 0.309093 1.819330 15.735700 0.000005 -0.000001 62.444100 88.174800 -62.346000 8.984550 -0.406207 -0.000000 -4.529400 -1.697770 0.129305 16.377300 -0.000001 -0.000001 2.353500 -2.823920 2.747320 6.456720 -0.000001 -0.000000 -2.976640 -1.091080 2.341300 12.994200 -0.242716 4.980390 -83.088600 -12.322600 -60.404700 5.348090 -0.000007 -0.000001 -62.361300 -67.233400 -105.366000 24.328600 0.000019 0.000005 5.072370 4.255360 -50.110000 22.291600 -0.000001 0.000005 16.078900 5.375040 -2.144370 12.994500 -0.242716 -4.980390 95.358800 -12.227400 -66.111300 -5.348130 -0.000001 -0.000004 -46.664800 -69.120000 -90.661200 -24.328900 0.000322 -0.000009 -7.750430 -7.358660 -46.735500 -22.291500 -0.000108 -0.000004 19.645600 5.554540 -8.923480 -2.192480 -6.469440 -0.000000 -174.553000 -13.538700 -2.392230 39.081100 -0.000007 -0.000012 -0.091441 0.253471 19.837300 40.985400 -0.000006 -0.000013 -0.538694 10.218200 -65.383900 11.754300 -0.000000 0.000003 -0.000130 -0.001289 -16.626700 -2.192510 6.469440 -0.000001 177.149000 26.136400 178.991000 -39.081100 -0.002282 -0.040193 0.006241 -0.008120 19.771900 -40.985400 0.000008 0.000006 6.542070 15.883700 -67.380400 -11.754300 -0.000006 -0.000006 -0.001745 -0.025474 -17.608900
0.000000 0.000000 0.000000 0.000000 0.000000 -0.000000 -1.834710 92.438300 1.509510 89.121700 0.200983 1.876190 15.735700 0.000005 -0.000001 65.814800 88.059000 -65.675000 8.984550 -0.406207 -0.000000 -4.223730 -1.603810 0.220591 16.377300 -0.000001 -0.000001 2.178100 -2.853780 2.603400 6.456720 -0.000001 -0.000000 -3.083570 -1.310990 2.389390 12.994200 -0.242716 4.980390 -83.713700 -11.281700 -60.616600 5.348090 -0.000007 -0.000001 -57.548700 -65.492700 -98.377900 24.328600 0.000019 0.000005 4.748340 3.467760 -53.941200 22.291600 -0.000001 0.000005 15.503300 5.375000 -2.141860 12.994500 -0.242716 -4.980390 94.884400 -11.193400 -66.240300 -5.348130 -0.000001 -0.000004 -43.539600 -66.834200 -85.029500 -24.328900 0.000322 -0.000009 -7.816610 -6.321470 -51.266800 -22.291500 -0.000108 -0.000004 19.793000 5.538430 -8.172970 -2.192480 -6.469440 -0.000000 -174.542000 -13.687600 -2.351600 39.081100 -0.000007 -0.000012 -0.089890 0.250521 19.738600 40.985400 -0.000006 -0.000013 -0.511830 10.260400 -65.263400 11.754300 -0.000000 0.000003 -0.000134 -0.001319 -16.627800 -2.192510 6.469440 -0.000001 177.098000 26.431900 179.214000 -39.081100 -0.002282 -0.040193 0.005509 -0.006220 19.366300 -40.985400 0.000008 0.000006 6.537280 16.312400 -67.323400 -11.754300 -0.000006 -0.000006 -0.001601 -0.023603 -17.532900
0.000000 0.000000 0.000000 0.000000 0.000000 -0.000000 -1.789350 92.450800 1.364540 89.116600 0.057968 2.017980 15.735700 0.000005 -0.000001 68.836500 87.859000 -68.645500 8.984550 -0.406207 -0.000000 -3.770840 -1.564240 0.330764 16.377300 -0.000001 -0.000001 1.911840 -2.742110 2.407960 6.456720 -0.000001 -0.000000 -3.360760 -1.435190 2.452930 12.994200 -0.242716 4.980390 -84.476900 -10.018300 -60.933000 5.348090 -0.000007 -0.000001 -51.425200 -63.054700 -89.009100 24.328600 0.000019 0.000005 4.520650 2.735300 -58.890000 22.291600 -0.000001 0.000005 15.303000 5.370240 -1.994170 12.994500 -0.242716 -4.980390 94.227900 -9.902160 -66.738700 -5.348130 -0.000001 -0.000004 -39.895200 -63.752300 -77.851100 -24.328900 0.000322 -0.000009 -8.009180 -5.209020 -57.166900 -22.291500 -0.000108 -0.000004 19.654700 5.522940 -7.488200 -2.192480 -6.469440 -0.000000 -174.575000 -13.662300 -2.307420 39.081100 -0.000007 -0.000012 -0.089778 0.249879 19.762700 40.985400 -0.000006 -0.000013 -0.493640 10.099800 -65.192400 11.754300 -0.000000 0.000003 -0.000131 -0.001294 -16.626900 -2.192510 6.469440 -0.000001 176.964000 26.749700 179.477000 -39.081100 -0.002282 -0.040193 0.004897 -0.004561 19.036600 -40.985400 0.000008 0.000006 6.567970 16.804400 -67.362100 -11.754300 -0.000006 -0.000006 -0.001437 -0.021431 -17.444600
0.000000 0.000000 0.000000 0.000000 0.000000 -0.000000 -1.739840 92.464900 1.186670 89.117000 -0.129384 2.177380 15.735700 0.000005 -0.000001 70.276000 87.590400 -70.002500 8.984550 -0.406207 -0.000000 -3.226130 -1.651920 0.500545 16.377300 -0.000001 -0.000001 1.586740 -2.446620 2.038210 6.456720 -0.000001 -0.000000 -3.694350 -1.426010 2.605470 12.994200 -0.242716 4.980390 -85.366100 -8.652360 -61.686400 5.348090 -0.000007 -0.000001 -44.622700 -59.873700 -77.361000 24.328600 0.000019 0.000005 4.323560 2.013850 -65.071500 22.291600 -0.000001 0.000005 15.045100 5.357500 -1.603200 12.994500 -0.242716 -4.980390 93.483900 -8.505510 -67.628000 -5.348130 -0.000001 -0.000004 -36.973200 -59.493900 -70.178000 -24.328900 0.000322 -0.000009 -8.063240 -3.955980 -64.034200 -22.291500 -0.000108 -0.000004 19.477100 5.508920 -6.896280 -2.192480 -6.469440 -0.000000 -174.606000 -13.755300 -2.266490 39.081100 -0.000007 -0.000012 -0.089091 0.247537 19.794300 40.985400 -0.000006 -0.000013 -0.460150 9.999200 -65.101500 11.754300 -0.000000 0.000003 -0.000159 -0.001523 -16.635400 -2.192510 6.469440 -0.000001 176.801000 27.042400 179.630000 -39.081100 -0.002282 -0.040193 -0.003577 0.020195 18.863400 -40.985400 0.000008 0.000006 6.286330 17.349200 -67.190300 -11.754300 -0.000006 -0.000006 -0.001496 -0.022223 -17.476800
0.000000 0.000000 0.000000 0.000000 0.000000 -0.000000 -1.710210 92.474000 0.960118 89.110400 -0.294134 2.316780 15.735700 0.000005 -0.000001 72.006100 87.301700 -71.683000 8.984550 -0.406207 -0.000000 -2.629050 -1.695800 0.607294 16.377300 -0.000001 -0.000001 1.171050 -2.241080 1.767400 6.456720 -0.000001 -0.000000 -3.955160 -1.482470 2.771310 12.994200 -0.242716 4.980390 -86.233300 -7.347630 -62.762100 5.348090 -0.000007 -0.000001 -39.984000 -55.100400 -66.162400 24.328600 0.000019 0.000005 4.769620 1.588790 -71.617200 22.291600 -0.000001 0.000005 14.617100 5.346830 -1.282370 12.994500 -0.242716 -4.980390 92.614800 -6.894500 -69.174800 -5.348130 -0.000001 -0.000004 -33.868900 -54.273300 -60.810000 -24.328900 0.000322 -0.000009 -8.413260 -2.867700 -71.306600 -22.291500 -0.000108 -0.000004 19.304800 5.500690 -6.561260 -2.192480 -6.469440 -0.000000 -174.626000 -13.796300 -2.311500 39.081100 -0.000007 -0.000012 -0.089170 0.246456 19.890500 40.985400 -0.000006 -0.000013 -0.444755 9.869160 -65.010000 11.754300 -0.000000 0.000003 -0.000144 -0.001403 -16.631000 -2.192510 6.469440 -0.000001 176.659000 27.161000 179.629000 -39.081100 -0.002282 -0.040193 -0.021378 0.072404 18.837800 -40.985400 0.000008 0.000006 5.633970 17.832900 -66.799900 -11.754300 -0.000006 -0.000006 -0.001307 -0.019682 -17.373500
